<svg xmlns="http://www.w3.org/2000/svg" width="16.379" height="17.11" viewBox="0 0 16.379 17.11">
  <path id="cog-solid" d="M34.814,18.71l-1.47-.849a6.645,6.645,0,0,0,0-2.422l1.47-.849a.417.417,0,0,0,.19-.483,8.591,8.591,0,0,0-1.887-3.263.415.415,0,0,0-.511-.079l-1.47.849a6.51,6.51,0,0,0-2.1-1.211V8.71a.413.413,0,0,0-.324-.4,8.672,8.672,0,0,0-3.767,0,.413.413,0,0,0-.324.4v1.7a6.716,6.716,0,0,0-2.1,1.211l-1.466-.849a.41.41,0,0,0-.511.079,8.54,8.54,0,0,0-1.887,3.263.413.413,0,0,0,.19.483l1.47.849a6.645,6.645,0,0,0,0,2.422l-1.47.849a.417.417,0,0,0-.19.483A8.591,8.591,0,0,0,20.55,22.46a.415.415,0,0,0,.511.079l1.47-.849a6.51,6.51,0,0,0,2.1,1.211v1.7a.413.413,0,0,0,.324.4,8.672,8.672,0,0,0,3.767,0,.413.413,0,0,0,.324-.4V22.9a6.715,6.715,0,0,0,2.1-1.211l1.47.849a.41.41,0,0,0,.511-.079A8.54,8.54,0,0,0,35.007,19.2.426.426,0,0,0,34.814,18.71Zm-7.982.7a2.76,2.76,0,1,1,2.76-2.76A2.763,2.763,0,0,1,26.832,19.41Z" transform="translate(-18.644 -8.099)" fill="#fff"/>
</svg>
