<svg xmlns="http://www.w3.org/2000/svg" width="16.039" height="16.039" viewBox="0 0 16.039 16.039">
  <path id="cookie-bite-solid" d="M15.991,8.018a4.007,4.007,0,0,1-3.962-4.005A4.007,4.007,0,0,1,8.023.052a4.134,4.134,0,0,0-2.5.4l-2.166,1.1A4.142,4.142,0,0,0,1.55,3.368L.451,5.525a4.155,4.155,0,0,0-.4,2.536L.428,10.45a4.151,4.151,0,0,0,1.164,2.286l1.716,1.715a4.136,4.136,0,0,0,2.278,1.161l2.4.381a4.132,4.132,0,0,0,2.523-.4l2.166-1.1a4.144,4.144,0,0,0,1.81-1.811l1.1-2.158a4.153,4.153,0,0,0,.4-2.5ZM5.511,11.532a1,1,0,1,1,1-1A1,1,0,0,1,5.511,11.532Zm1-5.012a1,1,0,1,1,1-1A1,1,0,0,1,6.514,6.52Zm5.012,4.01a1,1,0,1,1,1-1A1,1,0,0,1,11.526,10.53Z" transform="translate(0.002 -0.005)" fill="#fff"/>
</svg>
