<svg xmlns="http://www.w3.org/2000/svg" width="22.325" height="23.902" viewBox="0 0 22.325 23.902">
  <g id="Group_706" data-name="Group 706" transform="translate(-7197.976 -659.625)">
    <path id="Path_367" data-name="Path 367" d="M7209.135,664.355h0a6.486,6.486,0,0,0-4.574,11.024,3.469,3.469,0,0,1,1.3,2.5.914.914,0,0,0,.913.913h4.731a.913.913,0,0,0,.913-.907,3.4,3.4,0,0,1,1.3-2.5,6.357,6.357,0,0,0,1.858-4.6,6.607,6.607,0,0,0-1.962-4.686A6.222,6.222,0,0,0,7209.135,664.355Zm4.609,6.436a4.579,4.579,0,0,1-1.3,3.283l-.157.162a5.576,5.576,0,0,0-1.6,2.734h-3.1a5.6,5.6,0,0,0-1.742-2.886,4.911,4.911,0,0,1-1.315-3.291,4.809,4.809,0,0,1,4.61-4.611,4.282,4.282,0,0,1,3.165,1.226A4.764,4.764,0,0,1,7213.744,670.791Z" />
    <path id="Path_368" data-name="Path 368" d="M7211.5,679.335h-4.731a.913.913,0,0,0,0,1.827h4.731a.913.913,0,0,0,0-1.827Z" />
    <path id="Path_369" data-name="Path 369" d="M7210.715,681.7h-3.153a.913.913,0,1,0,0,1.827h3.153a.913.913,0,1,0,0-1.827Z" />
    <path id="Path_370" data-name="Path 370" d="M7209.139,663.028a.914.914,0,0,0,.913-.913v-1.576a.913.913,0,1,0-1.827,0v1.576A.914.914,0,0,0,7209.139,663.028Z" />
    <path id="Path_371" data-name="Path 371" d="M7200.466,669.874h-1.576a.913.913,0,1,0,0,1.827h1.576a.913.913,0,1,0,0-1.827Z" />
    <path id="Path_372" data-name="Path 372" d="M7219.388,669.874h-1.577a.913.913,0,1,0,0,1.827h1.577a.913.913,0,0,0,0-1.827Z" />
    <path id="Path_373" data-name="Path 373" d="M7217.033,662.9h0a.917.917,0,0,0-1.288,0l-1.119,1.111a.916.916,0,0,0,0,1.3.905.905,0,0,0,.643.265h.008a.908.908,0,0,0,.645-.266l1.112-1.119A.917.917,0,0,0,7217.033,662.9Z" />
    <path id="Path_374" data-name="Path 374" d="M7203.008,665.567a.918.918,0,0,0,.645-.265.913.913,0,0,0,0-1.3l-1.126-1.118a.913.913,0,0,0-1.281,1.295l1.112,1.12a.916.916,0,0,0,.643.265Z" />
  </g>
</svg>
