<svg xmlns="http://www.w3.org/2000/svg" width="20.699" height="20.701" viewBox="0 0 20.699 20.701">
  <g id="Group_703" data-name="Group 703" transform="translate(-7252.364 -662.989)">
    <g id="Group_702" data-name="Group 702">
      <path id="Path_366" data-name="Path 366" d="M7264.523,683.69h-3.664l-.5-2.992a7.692,7.692,0,0,1-1.2-.5l-2.483,1.74-2.591-2.593,1.758-2.459a7.588,7.588,0,0,1-.5-1.211l-2.974-.527v-3.664l2.979-.5a7.747,7.747,0,0,1,.5-1.211l-1.734-2.479,2.592-2.591,2.466,1.763a7.61,7.61,0,0,1,1.2-.492l.488-2.991h3.667l.526,3a7.647,7.647,0,0,1,1.2.5l2.471-1.778,2.594,2.593-1.757,2.5a7.683,7.683,0,0,1,.492,1.186l3.015.493v3.667l-3.012.529a7.687,7.687,0,0,1-.49,1.187l1.785,2.478-2.593,2.6-2.5-1.752a7.7,7.7,0,0,1-1.2.5Zm-2.393-1.5h1.136l.479-2.7.469-.119a6.162,6.162,0,0,0,1.7-.709l.419-.255,2.255,1.582.8-.8-1.608-2.231.255-.424a6.108,6.108,0,0,0,.7-1.689l.117-.474,2.717-.477v-1.133l-2.714-.444-.12-.479a6.171,6.171,0,0,0-.7-1.69l-.251-.418,1.583-2.256-.8-.8-2.227,1.6-.424-.257a6.129,6.129,0,0,0-1.7-.707l-.473-.118-.474-2.7h-1.132l-.44,2.694-.481.118a6.149,6.149,0,0,0-1.7.7l-.422.254-2.22-1.586-.8.8,1.562,2.234-.252.418a6.2,6.2,0,0,0-.711,1.711l-.12.477-2.678.446v1.136l2.678.474.117.473a6.168,6.168,0,0,0,.71,1.709l.256.422-1.583,2.215.8.8,2.236-1.566.418.251a6.238,6.238,0,0,0,1.7.7l.479.118Zm10.183-7.669h0Zm-9.6,2.769a3.95,3.95,0,1,1,3.951-3.95A3.954,3.954,0,0,1,7262.713,677.29Zm0-6.4a2.45,2.45,0,1,0,2.451,2.45A2.453,2.453,0,0,0,7262.713,670.89Z"/>
    </g>
  </g>
</svg>
