<svg xmlns="http://www.w3.org/2000/svg" width="30.775" height="25.013" viewBox="0 0 30.775 25.013">
  <path id="Path_216" data-name="Path 216" d="M96.781,548.052a12.824,12.824,0,0,1-3.622.994,6.358,6.358,0,0,0,2.774-3.492,13.033,13.033,0,0,1-4.01,1.518,6.307,6.307,0,0,0-10.913,4.306,6.456,6.456,0,0,0,.163,1.441,17.868,17.868,0,0,1-13-6.573,6.183,6.183,0,0,0-.854,3.174,6.31,6.31,0,0,0,2.806,5.252,6.288,6.288,0,0,1-2.857-.79v.078a6.313,6.313,0,0,0,5.06,6.189,6.368,6.368,0,0,1-2.836.109,6.33,6.33,0,0,0,5.9,4.381,12.654,12.654,0,0,1-7.824,2.7,13.4,13.4,0,0,1-1.5-.086,17.945,17.945,0,0,0,9.69,2.833c11.609,0,17.95-9.612,17.95-17.934,0-.268,0-.538-.019-.808a12.74,12.74,0,0,0,3.154-3.267Z" transform="translate(-66.066 -545.073)" fill="#42210b"/>
</svg>
