<svg xmlns="http://www.w3.org/2000/svg" width="14.013" height="16.014" viewBox="0 0 14.013 16.014">
  <path id="user-secret-solid" d="M12.008,9.657,12.756,7.7a.5.5,0,0,0-.469-.679h-1.83a3.966,3.966,0,0,0,.557-2V5.009c1.226-.244,2-.6,2-.992,0-.416-.854-.785-2.193-1.032A8.114,8.114,0,0,0,9.553.4,1,1,0,0,0,8.317.12L7.454.552a1,1,0,0,1-.895,0L5.7.12A1,1,0,0,0,4.46.4a8.18,8.18,0,0,0-1.27,2.59C1.855,3.233,1,3.6,1,4.018c0,.394.776.748,2,.992v.009a3.966,3.966,0,0,0,.557,2h-1.8a.5.5,0,0,0-.46.7L2.108,9.6A4.19,4.19,0,0,0,0,13.226v1.4a1.4,1.4,0,0,0,1.4,1.4h11.21a1.4,1.4,0,0,0,1.4-1.4v-1.4a4.192,4.192,0,0,0-2-3.569Zm-6.5,5.371L4.2,9.023l1.551,1,.751,1.251Zm3,0-1-3.753.751-1.251,1.551-1Zm1.3-9.337A2.3,2.3,0,0,1,9.3,6.736c-.316.291-1.5.7-2-.782a.306.306,0,0,0-.572,0c-.532,1.57-1.752,1.013-2,.782A2.27,2.27,0,0,1,4.2,5.691c-.025-.078-.2-.178-.2-.181V5.172a24.087,24.087,0,0,0,3,.181,23.5,23.5,0,0,0,3-.181V5.51S9.837,5.61,9.812,5.691Z" transform="translate(0 -0.015)" fill="#fff"/>
</svg>
