<svg xmlns="http://www.w3.org/2000/svg" width="24.997" height="24.997" viewBox="0 0 24.997 24.997">
  <g id="Group_633" data-name="Group 633" transform="translate(-1147.621 -26.869)">
    <path id="Path_344" data-name="Path 344" d="M1147.621,26.869h25v25h-25Z" fill="none"/>
    <path id="Path_345" data-name="Path 345" d="M1160.119,49.783A2.09,2.09,0,0,0,1162.2,47.7h-4.166A2.09,2.09,0,0,0,1160.119,49.783Zm6.249-6.25V38.326c0-3.2-1.7-5.875-4.687-6.583v-.708a1.562,1.562,0,1,0-3.124,0v.708c-2.979.708-4.687,3.375-4.687,6.583v5.207l-2.083,2.083v1.042h16.664V45.616Zm-2.083,1.042h-8.332V38.326c0-2.583,1.573-4.687,4.166-4.687s4.166,2.1,4.166,4.687Z" fill="#42210b"/>
  </g>
</svg>
