<svg xmlns="http://www.w3.org/2000/svg" width="20" height="18.35" viewBox="0 0 20 18.35">
  <path id="Path_359" data-name="Path 359" d="M49.8,1161.625a5.989,5.989,0,0,0-4.5,2.09,5.989,5.989,0,0,0-4.5-2.09,5.447,5.447,0,0,0-5.5,5.5c0,3.78,3.4,6.86,8.55,11.54l1.45,1.31,1.45-1.32c5.15-4.67,8.55-7.75,8.55-11.53A5.447,5.447,0,0,0,49.8,1161.625Zm-4.4,15.55-.1.1-.1-.1c-4.76-4.31-7.9-7.16-7.9-10.05a3.418,3.418,0,0,1,3.5-3.5,3.909,3.909,0,0,1,3.57,2.36h1.87a3.885,3.885,0,0,1,3.56-2.36,3.418,3.418,0,0,1,3.5,3.5C53.3,1170.015,50.16,1172.865,45.4,1177.175Z" transform="translate(-35.3 -1161.625)" fill="#d09a44"/>
</svg>
