<svg xmlns="http://www.w3.org/2000/svg" width="14.32" height="11.456" viewBox="0 0 14.32 11.456">
  <path id="Path_8" data-name="Path 8" d="M4207.387,730.068h-11.456a1.431,1.431,0,0,0-1.425,1.432l-.007,8.592a1.437,1.437,0,0,0,1.432,1.432h11.456a1.436,1.436,0,0,0,1.432-1.432V731.5A1.436,1.436,0,0,0,4207.387,730.068Zm-.286,3.043-5.062,3.164a.721.721,0,0,1-.759,0l-5.062-3.164a.615.615,0,0,1-.287-.516.607.607,0,0,1,.931-.515l4.8,3,4.8-3a.607.607,0,0,1,.93.515A.614.614,0,0,1,4207.1,733.111Z" transform="translate(-4194.499 -730.068)" fill="#ccc"/>
</svg>
